<svg width="440" height="440" viewBox="0 0 440 440" fill="none" xmlns="http://www.w3.org/2000/svg">
<rect width="440" height="440" rx="120" fill="#3AAA35"/>
<path d="M295.011 173.618C293.241 174.144 287.846 175.196 287.846 175.196L287.598 282.237L318.621 282.308L318.545 314.975L251.457 314.821L251.782 176.438L195.036 176.308L194.675 255.458C194.664 261.564 193.761 267.582 192.072 273.423C187.085 290.324 175.209 304.547 159.367 312.392C154.32 314.946 148.925 316.707 143.354 317.842C137.339 318.977 131.065 319.32 124.702 318.682L124.779 285.571C137.858 287.019 150.867 279.789 156.286 267.848C157.797 264.928 159.373 261.121 159.32 255.369C159.278 250.823 159.332 175.368 159.332 175.368C145.779 178.371 135.852 189.449 129.595 200.628L100 183.786C103.282 177.685 109.19 168.014 113.174 163.414C122.571 152.638 134.352 145.307 144.056 142.807C147.533 141.908 154.887 140.478 160.984 140.478C187.109 140.478 276.265 140.283 276.265 140.283C290.85 140.318 303.948 132.645 311.048 120L340 136.889C330.851 155.02 314.56 168.351 295.011 173.618Z" fill="white"/>
</svg>
